Coordinates
version=1
nRows=26
nColumns=22
inDegrees=yes

Units are S.I. units (second, meters, Newtons, ...)
If the header above contains a line with 'inDegrees', this indicates whether rotational values are in degrees (yes) or radians (no).

endheader
time	pelvis_tilt	pelvis_list	pelvis_rotation	pelvis_tx	pelvis_ty	pelvis_tz	hip_flexion_r	hip_adduction_r	hip_rotation_r	knee_angle_r	ankle_angle_r	subtalar_angle_r	hip_flexion_l	hip_adduction_l	hip_rotation_l	knee_angle_l	ankle_angle_l	subtalar_angle_l	lumbar_extension	lumbar_bending	lumbar_rotation
      1.36000000	     -2.94522283	     -0.98043851	      0.72759600	     -0.93678243	      0.92771168	     -0.77073078	      9.76963881	     -3.53737564	     -8.23983736	    -29.17082995	     15.34785403	      1.77370860	      4.54095216	      0.52917386	    -10.64673615	    -21.15807153	     17.97757651	     -4.05093786	     -9.29074601	     -3.45940837	     -6.21875013
      1.37000000	     -2.97145981	     -0.92874408	      0.48529443	     -0.93559050	      0.92745903	     -0.77090992	     10.68496997	     -3.68499214	     -7.87828503	    -30.83110965	     14.91675106	      1.78653565	      4.41512741	      0.61384072	    -10.85324291	    -21.07145890	     18.02355452	     -4.05573676	     -9.45877324	     -3.49785825	     -6.27160074
      1.38000000	     -3.00645756	     -0.88900543	      0.23253995	     -0.93439944	      0.92718809	     -0.77104428	     11.69236459	     -3.81509230	     -7.48242073	    -32.61930162	     14.38440600	      1.80625287	      4.31151396	      0.67804849	    -11.09332241	    -21.01050975	     18.08934504	     -4.05991600	     -9.62711536	     -3.52181693	     -6.34620885
      1.39000000	     -3.04323960	     -0.85392775	     -0.01922984	     -0.93319399	      0.92689158	     -0.77114335	     12.77411450	     -3.93503186	     -7.06327970	    -34.51624108	     13.77046107	      1.82899197	      4.22209042	      0.72734737	    -11.37097016	    -20.97523496	     18.18468587	     -4.06331322	     -9.80296604	     -3.53860689	     -6.46489685
      1.40000000	     -3.01644753	     -0.82257522	     -0.30324727	     -0.93191672	      0.92670710	     -0.77112829	     13.84138049	     -4.02398783	     -6.57200966	    -36.47620833	     13.02330336	      1.78213901	      4.02810019	      0.78095185	    -11.61089779	    -20.88410914	     18.23951079	     -4.05842260	    -10.05752594	     -3.56425484	     -6.53837136
      1.41000000	     -2.99518993	     -0.78162163	     -0.58865298	     -0.93061059	      0.92646208	     -0.77105910	     14.97371259	     -4.11015100	     -6.06445606	    -38.50777438	     12.23735864	      1.70884547	      3.85449801	      0.83389054	    -11.89468436	    -20.82590878	     18.32788481	     -4.04845907	    -10.31231976	     -3.60136883	     -6.66110621
      1.42000000	     -2.94220343	     -0.73879566	     -0.87456273	     -0.92923386	      0.92622856	     -0.77092853	     16.10401041	     -4.18233132	     -5.56153693	    -40.55564427	     11.40957981	      1.57975629	      3.63870630	      0.88784758	    -12.17614534	    -20.76180726	     18.42665563	     -4.03315414	    -10.60867060	     -3.64382131	     -6.80732244
      1.43000000	     -2.90219852	     -0.67897223	     -1.15674773	     -0.92779574	      0.92590631	     -0.77073800	     17.27559036	     -4.26167247	     -5.08507132	    -42.59887818	     10.63197030	      1.39531754	      3.44991067	      0.94822305	    -12.49823193	    -20.73201838	     18.55142874	     -4.01465221	    -10.88894939	     -3.70819587	     -7.00410190
      1.44000000	     -2.81448966	     -0.62261970	     -1.43578892	     -0.92623949	      0.92563835	     -0.77048203	     18.38133004	     -4.32245637	     -4.64499526	    -44.54786600	      9.87520367	      1.14400167	      3.18393693	      1.01148698	    -12.78153168	    -20.66768337	     18.66272542	     -3.99270281	    -11.22245337	     -3.77320199	     -7.20732693
      1.45000000	     -2.72194090	     -0.57001751	     -1.69302568	     -0.92457437	      0.92533866	     -0.77018813	     19.45464022	     -4.37735395	     -4.28455916	    -46.36597322	      9.22679400	      0.84498277	      2.91143168	      1.07015733	    -13.03500771	    -20.61332892	     18.79081413	     -3.96846023	    -11.55755687	     -3.83351991	     -7.44319886
      1.46000000	     -2.59688787	     -0.53615869	     -1.92962891	     -0.92274012	      0.92509424	     -0.76985507	     20.43327641	     -4.41261798	     -4.01122009	    -47.97762265	      8.68327003	      0.59524503	      2.57488779	      1.11410901	    -13.25755009	    -20.52255460	     18.90559981	     -3.94620505	    -11.92008184	     -3.87092777	     -7.71931421
      1.47000000	     -2.50265513	     -0.51416280	     -2.12714202	     -0.92077259	      0.92477709	     -0.76950776	     21.38777471	     -4.45406095	     -3.87090662	    -49.36682896	      8.33602502	      0.39267247	      2.28115832	      1.13639831	    -13.47121147	    -20.46555420	     19.04133086	     -3.92995952	    -12.23589436	     -3.88898674	     -8.04990349
      1.48000000	     -2.42192334	     -0.52468774	     -2.28337204	     -0.91865787	      0.92445495	     -0.76915471	     22.27817474	     -4.48236998	     -3.86637523	    -50.47589735	      8.13426101	      0.33663521	      1.99731981	      1.12251388	    -13.63780698	    -20.41610892	     19.18362623	     -3.92609546	    -12.52676497	     -3.86169540	     -8.41993748
      1.49000000	     -2.37195681	     -0.56515900	     -2.40182875	     -0.91641487	      0.92411121	     -0.76879601	     23.12472310	     -4.49925930	     -3.98515519	    -51.28609224	      8.05182831	      0.49887237	      1.74383009	      1.07493164	    -13.75574423	    -20.37556776	     19.33041705	     -3.93940413	    -12.77373466	     -3.79119944	     -8.82046828
      1.50000000	     -2.35586084	     -0.64728378	     -2.47788772	     -0.91405874	      0.92375706	     -0.76843793	     23.92493055	     -4.49162377	     -4.22352842	    -51.77924663	      8.05596350	      0.93656369	      1.52996404	      0.97905098	    -13.82453443	    -20.35243398	     19.48468976	     -3.97035370	    -12.97733109	     -3.66250377	     -9.24565852
      1.51000000	     -2.36063073	     -0.76624484	     -2.54021935	     -0.91157660	      0.92342320	     -0.76804839	     24.67046178	     -4.45174824	     -4.54197077	    -51.95308241	      8.10660141	      1.52909070	      1.33134817	      0.83977704	    -13.88256673	    -20.33217952	     19.63467816	     -3.99962110	    -13.14972075	     -3.48509214	     -9.66027284
      1.52000000	     -2.39863764	     -0.90635265	     -2.60477516	     -0.90896979	      0.92308320	     -0.76759293	     25.38829386	     -4.38156479	     -4.90131126	    -51.82848362	      8.16407025	      2.23959349	      1.15881510	      0.67341836	    -13.94074767	    -20.30934786	     19.78278985	     -4.01593761	    -13.27398408	     -3.28420508	    -10.04406602
      1.53000000	     -2.45885645	     -1.05865654	     -2.68422298	     -0.90622934	      0.92274288	     -0.76706084	     26.07487634	     -4.28290291	     -5.27613780	    -51.42564330	      8.21320273	      2.99380302	      0.99853343	      0.48990488	    -14.01903749	    -20.28262165	     19.94107900	     -4.00655023	    -13.36282047	     -3.07137389	    -10.38750680
      1.54000000	     -2.52903983	     -1.22235385	     -2.78011316	     -0.90334029	      0.92240727	     -0.76644590	     26.71661069	     -4.14624702	     -5.64078845	    -50.76065670	      8.30693681	      3.68373855	      0.84222155	      0.28642888	    -14.13344111	    -20.26581382	     20.10402829	     -3.96703937	    -13.42937662	     -2.84707282	    -10.70926476
      1.55000000	     -2.60854047	     -1.40745613	     -2.89146739	     -0.90027390	      0.92207086	     -0.76572670	     27.30514650	     -3.96086450	     -6.00892495	    -49.84232538	      8.46363772	      4.14831416	      0.68038791	      0.05408520	    -14.26464593	    -20.24757057	     20.27286125	     -3.91174178	    -13.47249274	     -2.60729456	    -10.96577202
      1.56000000	     -2.69835464	     -1.60104845	     -3.03659683	     -0.89705582	      0.92172417	     -0.76488972	     27.85364238	     -3.72060128	     -6.31849672	    -48.69833041	      8.62202287	      4.51783819	      0.50425729	     -0.18476275	    -14.38861263	    -20.20538710	     20.41512639	     -3.82522263	    -13.49442041	     -2.36605639	    -11.16354410
      1.57000000	     -2.78689080	     -1.79516049	     -3.19063878	     -0.89369176	      0.92133913	     -0.76396257	     28.34986330	     -3.45105071	     -6.60951532	    -47.36060626	      8.81692104	      4.67932789	      0.32890685	     -0.43490670	    -14.55375699	    -20.19259091	     20.56923512	     -3.75002769	    -13.51356578	     -2.12930936	    -11.33107926
      1.58000000	     -2.87136350	     -1.99971022	     -3.36363819	     -0.89019023	      0.92092033	     -0.76292672	     28.79167917	     -3.13259178	     -6.85359623	    -45.84708709	      8.95444423	      4.75012844	      0.13992313	     -0.69818286	    -14.70559725	    -20.18919609	     20.72813400	     -3.64332937	    -13.53522155	     -1.88841536	    -11.46109379
      1.59000000	     -2.95317217	     -2.19767707	     -3.54625600	     -0.88655655	      0.92044017	     -0.76180111	     29.18971545	     -2.79155072	     -7.05659705	    -44.19654077	      9.03537845	      4.73950683	     -0.05280093	     -0.96091677	    -14.86690103	    -20.20814262	     20.89333780	     -3.53166550	    -13.55861667	     -1.65923096	    -11.57088407
      1.60000000	     -3.03084224	     -2.38847496	     -3.73723626	     -0.88279087	      0.91989453	     -0.76057693	     29.54952778	     -2.43279333	     -7.22077910	    -42.44255996	      9.02373601	      4.67540852	     -0.25326531	     -1.22076093	    -15.02168373	    -20.24600487	     21.06854723	     -3.41023430	    -13.58628511	     -1.44557885	    -11.66894963
      1.61000000	     -3.10317492	     -2.56668978	     -3.92963577	     -0.87889595	      0.91927981	     -0.75927249	     29.87789888	     -2.07020561	     -7.35235979	    -40.61942817	      8.91227771	      4.57423129	     -0.46427639	     -1.47070323	    -15.16841964	    -20.29709519	     21.25518878	     -3.27460359	    -13.62028478	     -1.24854209	    -11.77106684
